<svg width="117" height="119" viewBox="0 0 117 119" fill="none" xmlns="http://www.w3.org/2000/svg">
<g filter="url(#filter0_d_2_5)">
<mask id="path-1-inside-1_2_5" fill="white">
<path d="M109.339 27.5956C102.953 16.8093 93.0517 8.45193 81.2351 3.87256C69.4185 -0.70682 56.3756 -1.24099 44.2119 2.35628C32.0483 5.95354 21.4736 13.4723 14.1949 23.6989C6.91617 33.9255 3.35818 46.2632 4.09525 58.7203C4.83233 71.1774 9.82145 83.0271 18.2573 92.3565C26.6931 101.686 38.0833 107.951 50.5894 110.139C63.0954 112.328 75.9874 110.313 87.1844 104.42C98.3813 98.5268 107.23 89.099 112.302 77.6586L83.3874 65.2903C81.1466 70.345 77.2371 74.5105 72.29 77.1143C67.3428 79.7181 61.6467 80.6084 56.1212 79.6413C50.5957 78.6742 45.5632 75.9063 41.836 71.7843C38.1088 67.6623 35.9045 62.4267 35.5788 56.9228C35.2531 51.4189 36.8252 45.9678 40.0411 41.4494C43.257 36.931 47.9293 33.609 53.3035 32.0196C58.6778 30.4302 64.4405 30.6662 69.6614 32.6895C74.8823 34.7128 79.2568 38.4053 82.0787 43.171L109.339 27.5956Z"/>
</mask>
<path d="M109.339 27.5956C102.953 16.8093 93.0517 8.45193 81.2351 3.87256C69.4185 -0.70682 56.3756 -1.24099 44.2119 2.35628C32.0483 5.95354 21.4736 13.4723 14.1949 23.6989C6.91617 33.9255 3.35818 46.2632 4.09525 58.7203C4.83233 71.1774 9.82145 83.0271 18.2573 92.3565C26.6931 101.686 38.0833 107.951 50.5894 110.139C63.0954 112.328 75.9874 110.313 87.1844 104.42C98.3813 98.5268 107.23 89.099 112.302 77.6586L83.3874 65.2903C81.1466 70.345 77.2371 74.5105 72.29 77.1143C67.3428 79.7181 61.6467 80.6084 56.1212 79.6413C50.5957 78.6742 45.5632 75.9063 41.836 71.7843C38.1088 67.6623 35.9045 62.4267 35.5788 56.9228C35.2531 51.4189 36.8252 45.9678 40.0411 41.4494C43.257 36.931 47.9293 33.609 53.3035 32.0196C58.6778 30.4302 64.4405 30.6662 69.6614 32.6895C74.8823 34.7128 79.2568 38.4053 82.0787 43.171L109.339 27.5956Z" fill="#0D2063"/>
<path d="M109.339 27.5956C102.953 16.8093 93.0517 8.45193 81.2351 3.87256C69.4185 -0.70682 56.3756 -1.24099 44.2119 2.35628C32.0483 5.95354 21.4736 13.4723 14.1949 23.6989C6.91617 33.9255 3.35818 46.2632 4.09525 58.7203C4.83233 71.1774 9.82145 83.0271 18.2573 92.3565C26.6931 101.686 38.0833 107.951 50.5894 110.139C63.0954 112.328 75.9874 110.313 87.1844 104.42C98.3813 98.5268 107.23 89.099 112.302 77.6586L83.3874 65.2903C81.1466 70.345 77.2371 74.5105 72.29 77.1143C67.3428 79.7181 61.6467 80.6084 56.1212 79.6413C50.5957 78.6742 45.5632 75.9063 41.836 71.7843C38.1088 67.6623 35.9045 62.4267 35.5788 56.9228C35.2531 51.4189 36.8252 45.9678 40.0411 41.4494C43.257 36.931 47.9293 33.609 53.3035 32.0196C58.6778 30.4302 64.4405 30.6662 69.6614 32.6895C74.8823 34.7128 79.2568 38.4053 82.0787 43.171L109.339 27.5956Z" stroke="#F5F5F5" stroke-width="6" mask="url(#path-1-inside-1_2_5)"/>
</g>
<defs>
<filter id="filter0_d_2_5" x="0" y="0" width="116.302" height="119" filterUnits="userSpaceOnUse" color-interpolation-filters="sRGB">
<feFlood flood-opacity="0" result="BackgroundImageFix"/>
<feColorMatrix in="SourceAlpha" type="matrix" values="0 0 0 0 0 0 0 0 0 0 0 0 0 0 0 0 0 0 127 0" result="hardAlpha"/>
<feOffset dy="4"/>
<feGaussianBlur stdDeviation="2"/>
<feComposite in2="hardAlpha" operator="out"/>
<feColorMatrix type="matrix" values="0 0 0 0 0 0 0 0 0 0 0 0 0 0 0 0 0 0 0.25 0"/>
<feBlend mode="normal" in2="BackgroundImageFix" result="effect1_dropShadow_2_5"/>
<feBlend mode="normal" in="SourceGraphic" in2="effect1_dropShadow_2_5" result="shape"/>
</filter>
</defs>
</svg>
