<svg width="147" height="146" viewBox="0 0 147 146" fill="none" xmlns="http://www.w3.org/2000/svg">
<path d="M132.303 87.1969C140.144 54.7209 120.173 22.0377 87.6971 14.1969C55.2212 6.356 22.538 26.3267 14.6971 58.8026C6.85627 91.2785 26.8269 123.962 59.3029 131.803C91.7788 139.643 124.462 119.673 132.303 87.1969Z" fill="#F5F5F5"/>
<path d="M76.215 99.6736C76.2029 102.434 73.9543 104.662 71.1938 104.649C68.4333 104.635 66.2054 102.388 66.2188 99.6274C66.231 96.8669 68.4795 94.639 71.24 94.6524C74.0018 94.6646 76.2284 96.9131 76.215 99.6736Z" fill="#79AD99"/>
<path d="M61.2275 93.2492C66.7169 87.4861 75.6382 87.3098 81.2674 92.9852C83.8188 95.5573 87.8136 91.6013 85.261 89.0281C77.5365 81.2427 64.8563 81.2889 57.2704 89.2555C54.7762 91.8737 58.726 95.8759 61.2275 93.2492Z" fill="#79AD99"/>
<path d="M44.2448 69.983C51.8453 63.4125 60.9185 59.2766 71.0789 59.251C81.1493 59.2255 91.0799 62.8008 98.4555 69.7276C101.091 72.2023 105.094 68.2537 102.449 65.7705C94.0009 57.8355 82.6694 53.5999 71.1045 53.6291C59.413 53.6582 49.0216 58.4375 40.2876 65.9881C37.5454 68.3595 41.5171 72.341 44.2448 69.983Z" fill="#79AD99"/>
<path d="M50.9573 82.8756C56.0527 77.3668 63.1936 73.9167 70.7406 73.7453C78.4932 73.5689 85.9782 76.7612 91.3679 82.2992C93.8961 84.8956 97.8885 80.9384 95.3615 78.3421C88.9832 71.7898 79.9464 67.9141 70.7674 68.1233C61.7903 68.3288 53.0904 72.2993 47.0014 78.882C44.5461 81.5343 48.4936 85.5389 50.9573 82.8756Z" fill="#79AD99"/>
<path d="M118.426 59.4159C119.901 51.0737 114.333 43.1153 105.991 41.6403C97.649 40.1654 89.6905 45.7324 88.2156 54.0747C86.7406 62.4169 92.3077 70.3754 100.65 71.8503C108.992 73.3253 116.951 67.7582 118.426 59.4159Z" fill="#C8ECDE"/>
<path d="M109.647 52.457L107.474 50.2832L97.7336 60.0232L99.9074 62.1971L109.647 52.457Z" fill="white"/>
<path d="M99.9228 50.2881L97.749 52.4619L107.489 62.2019L109.663 60.0281L99.9228 50.2881Z" fill="white"/>
</svg>
