<svg width="24" height="24" viewBox="0 0 24 24" fill="none" xmlns="http://www.w3.org/2000/svg">
<g clip-path="url(#clip0_421_4593)">
<path d="M17.9998 8.00012C17.9998 9.10513 17.1047 10.0001 15.9998 10.0001C14.8948 10.0001 13.9998 9.10513 13.9998 8.00012C13.9998 6.89512 14.8948 6.00012 15.9998 6.00012C17.1047 6.00012 17.9998 6.89512 17.9998 8.00012ZM23.5608 23.5611C23.2678 23.8541 22.8838 24.0001 22.4998 24.0001C22.1157 24.0001 21.7317 23.8541 21.4387 23.5611L0.43875 2.56113C-0.14625 1.97513 -0.14625 1.02513 0.43875 0.439125C1.02375 -0.146875 1.97475 -0.145875 2.56075 0.439125L3.81875 1.69713C4.63275 1.24313 5.55375 0.999125 6.49975 0.999125H17.4998C20.5327 0.999125 22.9998 3.46712 22.9998 6.49913V17.4991C22.9998 18.4451 22.7568 19.3671 22.3018 20.1801L23.5597 21.4381C24.1458 22.0241 24.1458 22.9731 23.5597 23.5591L23.5608 23.5611ZM6.14575 4.02513L19.9738 17.8531C19.9908 17.7371 19.9988 17.6181 19.9988 17.4991V6.50012C19.9988 5.12113 18.8768 4.00012 17.4988 4.00012H6.49975C6.38075 4.00012 6.26275 4.00913 6.14575 4.02513ZM15.2537 20.2041L8.49875 13.4491C7.96075 12.9111 7.08875 12.9111 6.55075 13.4491L3.99975 16.0001V9.50012C3.99975 8.67212 3.32875 8.00012 2.49975 8.00012C1.67075 8.00012 0.99975 8.67212 0.99975 9.50012V17.5001C0.99975 20.5321 3.46675 23.0001 6.49975 23.0001H14.4998C15.3288 23.0001 15.9998 22.3281 15.9998 21.5001C15.9998 20.9471 15.6997 20.4641 15.2548 20.2041H15.2537Z" fill="#B30E0A"/>
</g>
<defs>
<clipPath id="clip0_421_4593">
<rect width="24" height="24" fill="white"/>
</clipPath>
</defs>
</svg>
