<svg width="60" height="60" viewBox="0 0 60 60" fill="none" xmlns="http://www.w3.org/2000/svg">
<path d="M31.3717 52.1141C30.5713 52.1373 29.7534 52.1703 28.9546 52.1214C18.2124 51.4639 9.47819 43.4235 8.21089 32.684C6.72598 20.1003 16.1416 8.81491 28.8243 8.07783C29.7219 8.06655 30.6507 8.01265 31.545 8.07146C42.2592 8.77595 51.2661 17.492 52.0659 28.2455L52.1049 29.7502C52.1093 30.2978 52.1232 30.8526 52.0886 31.3993C51.3705 42.762 42.5477 51.2896 31.3717 52.1141ZM28.8844 9.41342C28.4708 9.44381 28.0247 9.45107 27.6177 9.53062L26.6953 9.66839C16.2656 11.4761 8.70656 21.0163 9.41099 31.516C9.94166 39.4264 15.3107 46.6085 22.7093 49.4299C24.6359 50.1647 26.6571 50.5723 28.7057 50.7703C29.0014 50.7988 31.2387 50.7582 31.2788 50.7811C32.152 50.7313 33.013 50.5964 33.8711 50.4357C41.8773 48.9365 48.3161 42.8435 50.2045 34.9231L50.5655 32.9966C50.6342 32.5255 50.7135 32.042 50.7434 31.5682L50.7686 30.1738C50.765 29.4839 50.7629 28.7989 50.6996 28.1113C49.7959 18.3004 41.432 10.0558 31.6019 9.41828C30.7081 9.36032 29.7803 9.38706 28.8844 9.41342Z" fill="#134057"/>
<path d="M30.9331 48.4004L30.749 48.4125C19.9683 49.0186 10.8818 39.2912 11.7648 28.6854C12.5341 19.4456 20.118 12.171 29.3175 11.7485L29.3493 11.7453C40.0962 11.282 49.2534 20.661 48.4118 31.4351C47.7021 40.5224 40.1305 48.1082 30.9331 48.4004ZM28.8953 13.1143C20.9591 13.7692 14.3787 19.763 13.2299 27.7392C13.1744 28.125 13.119 28.513 13.1059 28.9021L13.0933 29.9751C13.0813 37.9255 18.5258 44.813 26.302 46.6431C28.0068 47.0443 29.6138 47.1113 31.3549 47.0371L31.3865 47.0309C31.6499 46.9781 31.9356 46.9789 32.2042 46.9475C40.7037 45.9524 47.1611 38.4482 47.0959 29.9478C47.0916 29.393 47.1104 28.8052 47.0192 28.257L46.8603 27.234C45.8575 22.1184 42.7266 17.6416 38.1368 15.1604C34.8172 13.366 32.5008 13.0306 28.8953 13.1143Z" fill="#134057"/>
<path d="M30.3507 36.0673L30.3122 36.073C29.3734 36.1977 28.4632 35.4511 28.2636 34.5513C28.1907 34.2224 28.2058 33.8589 28.1831 33.5228L27.2159 20.4801C26.9631 18.4317 27.4007 16.3723 29.7895 16.1174C31.2179 16.0201 32.5078 16.9715 32.8003 18.3896C32.8822 18.7869 32.8533 19.1824 32.8391 19.5849L32.0304 33.1569C31.9844 34.4878 31.9902 35.7465 30.3507 36.0673ZM29.7969 17.4806C28.1832 17.7975 28.498 19.2885 28.5895 20.4987L29.5023 32.6019C29.5369 33.1221 29.501 33.6676 29.5876 34.1807L29.5933 34.217C29.652 34.5698 29.9263 34.7829 30.2877 34.706L30.3364 34.6949C30.4938 34.5724 30.6218 34.4534 30.6471 34.2452L30.7099 32.4111C30.795 31.7218 30.8055 31.0326 30.8483 30.3411L31.477 19.7171C31.4979 19.4109 31.5324 19.109 31.5101 18.8012C31.4454 17.9088 30.6031 17.4418 29.7969 17.4806ZM30.5325 43.823C26.6873 44.1915 26.039 38.6487 29.8713 38.106C30.4637 37.9965 31.2856 38.2238 31.7779 38.5579C34.0688 40.1131 33.1939 43.3506 30.5325 43.823ZM29.9497 39.4442C27.8264 39.921 28.4239 42.7638 30.4437 42.473C32.5096 41.9655 31.9424 39.3343 29.9497 39.4442Z" fill="#134057"/>
</svg>
