<svg width="33" height="24" viewBox="0 0 33 24" fill="none" xmlns="http://www.w3.org/2000/svg">
<g clip-path="url(#clip0_136_6188)">
<mask id="mask0_136_6188" style="mask-type:luminance" maskUnits="userSpaceOnUse" x="0" y="0" width="33" height="24">
<path d="M0.5 0H32.5002V24H0.5V0Z" fill="white"/>
</mask>
<g mask="url(#mask0_136_6188)">
<path fill-rule="evenodd" clip-rule="evenodd" d="M-1.5 0H34.5V24H-1.5V0Z" fill="#199D00"/>
<path fill-rule="evenodd" clip-rule="evenodd" d="M7.57223 6.80282C7.53065 7.36349 7.48082 8.35021 7.95721 8.45141C8.53345 8.50682 8.21568 7.47613 8.42427 7.28924C8.4637 7.1969 8.5364 7.19643 8.5424 7.31291V8.18713C8.53715 8.47147 8.72404 8.55519 8.86921 8.61393C9.02034 8.60225 9.12121 8.60732 9.18041 8.75432L9.25129 10.2666C9.25129 10.2666 9.60173 10.3669 9.61841 9.41596C9.63515 8.85768 9.50685 8.39033 9.58209 8.28168C9.58471 8.17494 9.72102 8.16857 9.81552 8.2206C9.96618 8.32682 10.0333 8.45802 10.2674 8.40557C10.6235 8.30741 10.8376 8.13416 10.8429 7.86069C10.8221 7.60077 10.7929 7.34085 10.6803 7.08093C10.696 7.03363 10.6116 6.91119 10.6272 6.8639C10.6912 6.96416 10.7886 6.95582 10.8108 6.8639C10.7502 6.66416 10.6561 6.47277 10.5036 6.3899C10.3776 6.2789 10.1931 6.30158 10.1256 6.53315C10.0943 6.79996 10.2218 7.11697 10.4161 7.3754C10.4573 7.47636 10.5153 7.64413 10.4898 7.79521C10.3865 7.85422 10.2831 7.82961 10.1964 7.73816C10.1964 7.73816 9.91293 7.52554 9.91293 7.47829C9.98816 6.9966 9.92962 6.94199 9.88795 6.8083C9.85879 6.62375 9.77123 6.5646 9.7003 6.43855C9.62938 6.36336 9.53343 6.36336 9.48759 6.43855C9.36224 6.65582 9.4207 7.12213 9.51121 7.33105C9.57665 7.52315 9.67659 7.64371 9.62934 7.64371C9.59048 7.75227 9.51009 7.72719 9.45159 7.6019C9.36805 7.34291 9.35132 6.95647 9.35132 6.78252C9.32629 6.56676 9.29873 6.10658 9.15674 5.98968C9.07012 5.87174 8.94173 5.92925 8.89687 6.03693C8.88754 6.25105 8.88655 6.46513 8.9107 6.66247C9.00805 7.00855 9.03866 7.31291 9.08591 7.66733C9.09904 8.14208 8.81141 7.8733 8.82454 7.63794C8.89087 7.33222 8.87366 6.851 8.8147 6.72904C8.76801 6.60707 8.71284 6.57697 8.59921 6.59704C8.50898 6.59155 8.2768 6.84505 8.2116 7.26557C8.2116 7.26557 8.15601 7.48204 8.13234 7.67422C8.10046 7.8914 7.95749 8.04468 7.85718 7.64366C7.77055 7.35224 7.7173 6.63472 7.57218 6.80277L7.57223 6.80282Z" fill="#F5EDE5"/>
<path fill-rule="evenodd" clip-rule="evenodd" d="M9.13804 9.10383C8.62954 9.35241 8.13778 9.5843 7.63757 9.82454C7.65585 9.48441 8.35096 8.87044 8.82496 8.86182C9.1335 8.87044 9.05596 8.9813 9.13804 9.10383Z" fill="#F5EDE5"/>
<path fill-rule="evenodd" clip-rule="evenodd" d="M8.87582 9.57394C8.08504 11.6124 10.7276 11.8964 11.0229 9.65742C11.0507 9.56555 11.1622 9.47367 11.1817 9.624C11.1204 11.6513 9.13762 11.7906 8.80068 11.1528C8.7172 11.0025 8.69207 10.6683 8.68373 10.4678C8.63357 10.0696 8.42479 10.2227 8.39137 10.6181C8.3579 10.8381 8.36629 10.8995 8.36629 11.1111C8.47209 12.7123 11.0258 12.0245 11.4407 10.7017C11.6607 9.96928 11.4044 9.4291 11.5242 9.43186C11.7776 9.70477 12.1312 9.46805 12.2092 9.37336C12.2427 9.32602 12.3262 9.29546 12.3847 9.35667C12.5824 9.4988 12.9306 9.43181 13.0029 9.18122C13.0447 8.93616 13.0782 8.68275 13.0865 8.42105C12.9249 8.47121 12.8053 8.50453 12.7941 8.57142L12.7607 8.7886C12.7468 8.85825 12.6074 8.86097 12.602 8.77186C12.5407 8.49338 12.2873 8.45719 12.1341 8.88886C12.031 8.97239 11.8445 8.98913 11.825 8.86383C11.85 8.57419 11.733 8.53519 11.4992 8.67164C11.4239 8.09799 11.3488 7.54946 11.2736 6.97575C11.3711 6.97294 11.4602 7.04531 11.5494 6.93394C11.4518 6.63047 11.2458 6.00942 11.1315 5.96485C11.0759 5.89805 11.0284 5.93981 10.9561 5.9565C10.8336 5.9955 10.7194 6.10135 10.7556 6.30741C10.9004 7.18735 10.9951 7.8585 11.1399 8.73849C11.1622 8.84152 11.0759 8.97788 10.9645 8.96396C10.7751 8.83589 10.7279 8.57696 10.4048 8.58802C10.1708 8.59083 9.90342 8.84424 9.87009 9.08939C9.83109 9.28421 9.81712 9.4958 9.86999 9.66577C10.0344 9.86344 10.2321 9.84403 10.4047 9.79946C10.5468 9.741 10.6637 9.59897 10.7138 9.63235C10.7473 9.67416 10.7221 10.1419 10.0454 10.5012C9.63614 10.6849 9.31026 10.7268 9.1349 10.3926C9.02629 10.1837 9.14325 9.39005 8.87582 9.57389V9.57394Z" fill="#F5EDE5"/>
<path fill-rule="evenodd" clip-rule="evenodd" d="M12.2306 7.50151C12.3893 7.44301 13.1413 6.58257 13.1413 6.58257C13.1023 6.54915 13.0674 6.52407 13.0284 6.49065C12.9866 6.45446 12.9908 6.41828 13.0284 6.38204C13.215 6.27348 13.1551 6.03535 13.0577 5.92679C12.8962 5.85432 12.7555 5.87804 12.6525 5.93092C12.5216 6.05626 12.491 6.2567 12.5941 6.38204C12.6944 6.42939 12.7946 6.53106 12.7277 6.58675C12.4201 6.91534 11.5776 7.48206 11.6751 7.50151C11.6959 7.52935 12.2139 7.52795 12.2306 7.50151ZM7.68962 10.547C7.40762 10.9962 7.38305 11.6674 7.53868 11.8675C7.62137 11.9621 7.75721 12.0035 7.85771 11.9739C8.0349 11.897 8.11243 11.5381 8.07038 11.4067C8.01122 11.3142 7.96468 11.2995 7.90562 11.3783C7.78093 11.6314 7.72918 11.4577 7.71826 11.3162C7.69913 11.048 7.7244 10.8009 7.75351 10.6052C7.78454 10.4047 7.75304 10.466 7.68962 10.547ZM19.7404 9.82745C19.4678 9.24053 19.0903 8.66054 18.9702 8.43775C18.8501 8.21486 17.9434 6.89898 17.8099 6.751C17.5154 6.40098 18.2882 6.89678 17.7121 6.20181C17.4925 6.01337 17.4797 6.00189 17.2974 5.84814C17.2055 5.78289 16.9809 5.66368 16.9412 5.86126C16.9212 6.0355 16.932 6.12995 16.9612 6.27503C16.9837 6.37173 17.1246 6.53368 17.1938 6.62753C18.1138 7.86409 18.9295 9.11284 19.7161 10.6829C19.8403 10.6239 19.8131 9.92565 19.7405 9.82745H19.7404Z" fill="#F5EDE5"/>
<path fill-rule="evenodd" clip-rule="evenodd" d="M18.5433 11.7911C18.4897 11.8512 18.6757 12.1087 18.9174 12.1084C19.3216 12.0615 19.6775 11.8345 20.007 11.2368C20.0951 11.0974 20.25 10.7992 20.2545 10.568C20.2853 9.21214 20.1866 8.15708 19.9835 7.17706C19.9704 7.08163 19.9784 6.96941 19.9945 6.94081C20.0207 6.90955 20.1095 6.94095 20.1566 6.86375C20.2257 6.7932 19.9731 6.20891 19.8291 5.98386C19.778 5.88336 19.7602 5.81623 19.6756 5.99567C19.5865 6.14145 19.5268 6.39589 19.5338 6.63364C19.7266 7.96878 19.7858 9.13672 19.9118 10.4719C19.9222 10.601 19.9031 10.7886 19.8173 10.8634C19.4999 11.1949 19.0416 11.603 18.5433 11.7911ZM24.0038 11.784C23.7137 11.9517 23.7134 12.1446 23.9479 12.1516C24.3521 12.1047 24.8298 12.0711 25.1592 11.5737C25.2473 11.4342 25.3521 11.0573 25.3566 10.8261C25.3874 9.47023 25.3389 8.4582 25.1357 7.47828C25.1228 7.3828 25.0805 7.16309 25.0966 7.13445C25.1228 7.06733 25.2546 7.14177 25.3017 7.06452C25.3708 6.99402 24.9606 6.467 24.8166 6.24195C24.7655 6.1415 24.7477 6.07438 24.6631 6.25377C24.574 6.39959 24.5429 6.6612 24.5785 6.89178C24.7929 8.34153 24.9525 9.43067 24.9854 10.7156C24.9669 10.8376 24.9623 10.9033 24.9051 11.057C24.7786 11.2192 24.6384 11.4219 24.507 11.5199C24.3756 11.6179 24.0952 11.7115 24.0038 11.7841V11.784Z" fill="#F5EDE5"/>
<path fill-rule="evenodd" clip-rule="evenodd" d="M24.2209 10.484C24.2176 10.145 24.2257 9.85222 24.2145 9.59938C24.2034 9.34649 24.1587 9.14056 24.0712 8.96108C23.9884 8.76861 24.0398 8.61397 24.0009 8.40894C23.962 8.204 23.9716 7.89706 23.9128 7.65388C23.8968 7.55891 23.8474 7.25474 23.8627 7.22558C23.8866 7.1577 23.9778 7.22769 24.0223 7.14903C24.089 7.07628 23.7909 6.30491 23.6397 6.08464C23.5853 5.98588 23.4866 6.01972 23.3648 6.18027C23.2519 6.28597 23.2938 6.52695 23.3369 6.75617C23.6269 8.26981 23.8433 9.63983 23.7961 11.0807C23.7816 11.2033 24.2239 10.7153 24.2209 10.484ZM22.0778 8.6067C21.8953 8.60338 21.5132 8.25167 21.4017 8.04561C21.3596 7.92744 21.3866 7.81213 21.4237 7.74458C21.4913 7.70066 21.5952 7.6513 21.6729 7.69864C21.6729 7.69864 21.7535 7.81133 21.7379 7.82567C21.8375 7.87339 21.8798 7.84592 21.8899 7.80542C21.8967 7.73445 21.8605 7.69217 21.86 7.61403C21.9023 7.40216 22.1445 7.3692 22.2357 7.50435C22.3024 7.5867 22.3269 7.76178 22.337 7.87995C22.336 7.94033 22.2382 7.8695 22.1827 7.88403C22.1271 7.89856 22.1137 7.96269 22.1094 8.02067C22.0993 8.17433 22.0811 8.42089 22.0778 8.60666V8.6067ZM18.7107 10.86C18.761 10.3993 18.6922 9.57885 18.6876 9.30702C18.6691 8.66483 18.5643 7.42442 18.5143 7.21719C18.4581 6.82658 18.675 7.26003 18.6449 7.03297C18.5746 6.64292 18.3582 6.3785 18.1039 6.02122C18.0219 5.90497 18.0247 5.8813 17.8981 6.04972C17.7579 6.36753 17.8789 6.5862 17.9151 6.83375C18.0985 7.64028 18.2055 8.38236 18.2553 9.11595C18.3052 9.84955 18.3205 10.6428 18.275 11.4154C18.4124 11.4208 18.6334 11.1931 18.7107 10.86Z" fill="#F5EDE5"/>
<path fill-rule="evenodd" clip-rule="evenodd" d="M24.8424 10.1224C24.5207 9.5826 24.0353 8.99798 23.9055 8.78062C23.7759 8.56321 22.679 7.14796 22.5392 7.00593C22.138 6.58438 22.7233 6.9373 22.4624 6.61171C22.2418 6.36946 22.1774 6.29343 21.9886 6.14774C21.8939 6.08657 21.8365 5.96971 21.8054 6.16883C21.793 6.34377 21.7801 6.54618 21.7919 6.6936C21.7912 6.77558 21.8766 6.92957 21.9498 7.02032C22.9227 8.21563 23.9839 9.43612 24.8381 10.9705C24.9597 10.906 24.9193 10.2173 24.8424 10.1224Z" fill="#F5EDE5"/>
<path fill-rule="evenodd" clip-rule="evenodd" d="M10.2465 9.12598C10.2233 9.16657 10.1717 9.21917 10.189 9.27359C10.2251 9.32253 10.254 9.33246 10.3142 9.33514C10.3664 9.33514 10.4393 9.34746 10.455 9.31667C10.4832 9.28573 10.5045 9.2225 10.4811 9.16287C10.4267 9.02693 10.2749 9.07756 10.2465 9.12598Z" fill="#1BA400"/>
<path fill-rule="evenodd" clip-rule="evenodd" d="M21.1017 16.994C21.5319 17.0099 21.8135 17.0137 22.1961 17.0592C22.1961 17.0592 22.5261 17.0266 22.6439 17.0088C23.142 16.9613 23.164 17.7202 23.164 17.7202C23.1586 18.1653 22.9868 18.1886 22.7675 18.2356C22.6422 18.2515 22.5763 18.1605 22.5104 18.0636C22.4278 18.0982 22.3154 18.1032 22.1793 18.0843C22 18.0731 21.8207 18.0738 21.6415 18.0626C21.451 18.0458 21.3497 18.0824 21.1592 18.0657C21.12 18.1273 21.069 18.2127 20.9525 18.1852C20.8556 18.1745 20.7408 17.9024 20.7746 17.6955C20.8446 17.5472 20.8253 17.5949 20.818 17.5297C19.059 17.4849 17.2832 17.4065 15.5577 17.429C14.2077 17.4345 12.8744 17.4905 11.5411 17.5466C10.8297 17.5354 10.2863 17.4233 9.91101 16.8743C9.94462 16.8743 11.726 16.9752 12.247 16.9415C13.2105 16.9303 14.09 16.8519 15.0704 16.8239C17.003 16.8575 18.9189 16.8575 20.8514 16.9919C20.6666 16.8655 20.66 16.5667 20.9445 16.4937C20.9687 16.4771 20.9812 16.6422 21.0237 16.6392C21.2514 16.6221 21.1515 16.9304 21.1015 16.994L21.1017 16.994ZM13.3424 6.34123C13.0496 7.17837 13.5103 8.09408 13.8297 8.00492C14.0601 8.10031 14.2068 7.66194 14.3012 7.18166C14.3657 7.04684 14.4145 7.0325 14.4476 7.10178C14.4391 7.74045 14.4935 7.88192 14.6577 8.0758C15.024 8.35841 15.327 8.11189 15.3508 8.08808L15.6359 7.80289C15.6994 7.73609 15.7839 7.7322 15.8736 7.79103C15.9607 7.87025 15.9485 8.00703 16.135 8.10191C16.2921 8.16472 16.6277 8.11644 16.7055 7.98116C16.8101 7.80181 16.8352 7.74022 16.8837 7.6722C16.9584 7.57278 17.0857 7.61698 17.0857 7.64839C17.0738 7.70384 16.9991 7.75934 17.0501 7.85919C17.1389 7.9258 17.1594 7.88295 17.212 7.86814C17.3978 7.77931 17.5373 7.37511 17.5373 7.37511C17.5455 7.22473 17.4613 7.23716 17.4066 7.26814C17.3353 7.31173 17.3307 7.32566 17.2593 7.36925C17.1685 7.38275 16.9922 7.44298 16.9051 7.30808C16.8161 7.14584 16.8149 6.91948 16.7469 6.75589C16.7469 6.74398 16.6289 6.49817 16.7387 6.48242C16.7941 6.49273 16.9124 6.52405 16.9312 6.42444C16.9894 6.32731 16.8067 6.05234 16.6817 5.91345C16.5732 5.7943 16.4228 5.77995 16.2777 5.90159C16.176 5.99511 16.1907 6.09959 16.1707 6.19864C16.1448 6.31236 16.1504 6.45228 16.2658 6.6027C16.3672 6.80272 16.5524 7.06034 16.4916 7.42259C16.4916 7.42259 16.3835 7.59383 16.1951 7.57142C16.1165 7.55431 15.9892 7.52098 15.9212 7.01858C15.8697 6.63833 15.9333 6.10625 15.7719 5.85683C15.7136 5.70622 15.6711 5.56076 15.529 5.81839C15.4908 5.91955 15.327 6.07306 15.4458 6.38881C15.543 6.58897 15.5826 6.91475 15.5385 7.27728C15.4711 7.38026 15.4562 7.41514 15.3679 7.51817C15.2438 7.65153 15.1092 7.6175 15.0061 7.56767C14.9098 7.50275 14.8344 7.46919 14.7904 7.26294C14.7984 6.9342 14.8167 6.39603 14.7566 6.28189C14.668 6.10508 14.5219 6.16901 14.4595 6.22245C14.1596 6.49662 14.0115 6.95923 13.9209 7.32762C13.8378 7.59608 13.7493 7.51916 13.687 7.41083C13.5356 7.26889 13.5253 6.1588 13.3424 6.34133V6.34123Z" fill="#F5EDE5"/>
<path fill-rule="evenodd" clip-rule="evenodd" d="M14.2242 8.16081C14.3572 8.06659 14.295 8.00078 14.4939 8.19962C14.7429 8.62534 14.903 9.17673 14.927 9.66522C14.9165 9.78559 15.0014 9.86176 15.0402 9.83561C15.0632 9.553 15.7505 9.15925 16.3806 9.10168C16.477 9.08073 16.4301 8.89604 16.4458 8.80187C16.408 8.45204 16.6424 8.13353 16.9709 8.10812C17.418 8.17422 17.5668 8.4129 17.5744 8.77726C17.5261 9.47673 16.7974 9.59533 16.388 9.65111C16.3252 9.67487 16.299 9.70384 16.388 9.73811L18.1034 9.74589L18.1909 9.79642C18.2014 9.83734 18.1659 9.80322 18.0982 9.91473C18.0305 10.0262 17.9306 10.2834 17.9255 10.4551C17.4144 10.6195 16.8858 10.6915 16.3485 10.7564C16.1618 10.8508 16.0693 10.9766 16.1076 11.1182C16.1705 11.2752 16.5839 11.432 16.5839 11.4395C16.6624 11.4887 16.7553 11.6036 16.5617 11.8391C15.725 11.8023 15.0765 11.4462 14.8521 10.9436C14.7844 10.8911 14.7116 10.9433 14.6649 11.0112C14.3382 11.4324 14.0168 11.8116 13.4598 12.0129C13.1277 12.0959 12.7877 11.962 12.6271 11.7445C12.5196 11.6207 12.5237 11.484 12.4842 11.4543C12.3047 11.5337 10.7599 12.1901 10.9557 11.8844C11.3316 11.482 11.9826 11.1864 12.5574 10.7892C12.5989 10.6562 12.6743 10.206 12.9013 10.0594C12.9144 10.0605 12.8654 10.3238 12.8703 10.4348C12.8729 10.5259 12.8636 10.5616 12.8835 10.5382C12.9223 10.5134 13.6198 9.96536 13.6737 9.79731C13.7417 9.70093 13.6941 9.45686 13.6941 9.44945C13.5633 9.11233 13.3798 9.08368 13.3118 8.9162C13.2506 8.69368 13.2783 8.43972 13.4054 8.36893C13.5184 8.26642 13.6521 8.27908 13.7755 8.39111C13.9164 8.51729 14.0415 8.7639 14.0777 8.94761C14.0535 9.02026 13.8934 8.89933 13.8378 8.93542C13.9362 9.03723 13.9821 9.1547 14.0176 9.29842C14.1084 9.68322 14.0807 9.83279 13.9893 10.0816C13.6796 10.7327 13.2839 10.927 12.9376 11.1682C12.9284 11.1715 12.9222 11.3335 13.0524 11.421C13.0973 11.4682 13.2779 11.4924 13.4903 11.4243C13.9007 11.2005 14.3267 10.7882 14.5382 10.329C14.5996 9.98158 14.5145 9.61318 14.4241 9.2919C14.2881 8.97793 14.1278 8.52962 14.1278 8.52222C14.1225 8.32642 14.1384 8.2585 14.2243 8.16081H14.2242ZM9.73312 6.35003C9.93055 6.4442 10.3018 6.40412 10.2861 6.08575C10.2861 6.05762 10.2789 5.96237 10.2761 5.93654C10.2358 5.8427 10.1258 5.8659 10.1009 5.96279C10.0931 5.99453 10.1149 6.04623 10.0861 6.06217C10.0696 6.07881 10.0065 6.06901 10.0092 5.98108C10.0092 5.95304 9.98854 5.92295 9.97607 5.90514C9.9636 5.89698 9.95568 5.89473 9.93309 5.89473C9.90552 5.89581 9.90599 5.90298 9.8909 5.92614C9.88448 5.94967 9.87566 5.97268 9.87566 5.9994C9.87219 6.03072 9.86038 6.04187 9.83737 6.04651C9.81163 6.04651 9.81744 6.04933 9.79659 6.03606C9.78421 6.02247 9.76874 6.01731 9.76874 5.9942C9.76874 5.97025 9.7633 5.93148 9.75608 5.91568C9.74516 5.90125 9.72759 5.89459 9.7078 5.88948C9.59999 5.88986 9.59249 6.01286 9.59873 6.05954C9.59062 6.06836 9.58607 6.289 9.73312 6.35003Z" fill="#F5EDE5"/>
<path fill-rule="evenodd" clip-rule="evenodd" d="M15.5205 8.79984C15.7179 8.89401 16.1879 8.83983 16.0734 8.53556C16.0734 8.50744 16.0662 8.41214 16.0634 8.38636C16.0231 8.29252 15.9132 8.31572 15.8883 8.41261C15.8804 8.44434 15.9022 8.49605 15.8735 8.51198C15.857 8.52862 15.7939 8.51883 15.7965 8.43089C15.7965 8.40286 15.7759 8.37277 15.7634 8.35495C15.751 8.3468 15.743 8.34455 15.7204 8.34455C15.6929 8.34562 15.6933 8.3528 15.6783 8.37595C15.6718 8.39948 15.663 8.4225 15.663 8.44922C15.6595 8.48053 15.6477 8.49169 15.6247 8.49633C15.599 8.49633 15.6048 8.49914 15.5839 8.48587C15.5716 8.47228 15.5561 8.46712 15.5561 8.44402C15.5561 8.42006 15.5507 8.3813 15.5434 8.3655C15.5325 8.35106 15.5149 8.34441 15.4952 8.3393C15.3873 8.33967 15.3798 8.46267 15.3861 8.50936C15.378 8.51817 15.3734 8.73881 15.5205 8.79984ZM18.8955 7.78594C19.0929 7.88011 19.4641 7.84003 19.4484 7.52166C19.4484 7.49353 19.4412 7.39828 19.4384 7.37245C19.3981 7.27861 19.2882 7.30181 19.2633 7.3987C19.2554 7.43044 19.2772 7.48214 19.2485 7.49808C19.232 7.51472 19.1689 7.50492 19.1715 7.41698C19.1715 7.38895 19.1509 7.35886 19.1384 7.34105C19.126 7.33289 19.118 7.33064 19.0954 7.33064C19.0679 7.33172 19.0683 7.33889 19.0533 7.36205C19.0468 7.38558 19.038 7.40859 19.038 7.43531C19.0345 7.46662 19.0227 7.47778 18.9997 7.48242C18.974 7.48242 18.9798 7.48523 18.9589 7.47197C18.9466 7.45837 18.931 7.45322 18.931 7.43011C18.931 7.40616 18.9257 7.36739 18.9184 7.35159C18.9075 7.33716 18.8899 7.3305 18.8702 7.32539C18.7623 7.32576 18.7548 7.44877 18.7611 7.49545C18.753 7.50427 18.7484 7.72491 18.8955 7.78594ZM20.6434 10.3327C20.2994 10.7205 20.4511 11.3618 20.5288 11.5C20.6422 11.727 20.7336 11.8725 20.9543 11.9848C21.1554 12.1327 21.3121 12.0403 21.3984 11.9366C21.6008 11.727 21.6032 11.1916 21.6981 11.0855C21.7648 10.8907 21.9325 10.9239 22.0139 11.0103C22.0928 11.1237 22.1858 11.1968 22.3017 11.2586C22.4904 11.4251 22.7158 11.4555 22.9378 11.3038C23.0895 11.2187 23.1881 11.1087 23.277 10.8904C23.3757 10.6265 23.3207 9.40692 23.3009 8.68411C23.2933 8.62739 23.1048 7.69012 23.1048 7.67967C23.1048 7.66917 23.0799 7.20131 23.0591 7.08984C23.0555 7.04461 23.0443 7.03162 23.0917 7.03734C23.142 7.07967 23.1489 7.08234 23.1803 7.09626C23.231 7.10555 23.2764 7.01916 23.2458 6.9397L22.7748 6.07097C22.737 6.03375 22.6882 5.99287 22.6282 6.08147C22.5709 6.13167 22.51 6.22256 22.5118 6.33942C22.5258 6.5453 22.562 6.75473 22.5759 6.96066L22.7643 8.01778C22.8236 8.77134 22.8385 9.38808 22.8978 10.1416C22.8895 10.4607 22.7903 10.7389 22.6973 10.779C22.6973 10.779 22.5557 10.8611 22.4608 10.7705C22.3917 10.7428 22.1154 10.3099 22.1154 10.3099C21.9741 10.1804 21.881 10.2174 21.7804 10.3099C21.5032 10.5776 21.3778 11.0784 21.1894 11.4238C21.1408 11.5009 21.0035 11.5669 20.8514 11.4182C20.4651 10.8905 20.6915 10.1396 20.6434 10.3327ZM18.9841 5.93766C19.1609 6.01172 19.2857 6.36998 19.245 6.54492C19.2098 6.76134 19.116 6.99506 19.0486 6.96464C18.9753 6.93745 19.0985 6.74948 19.0281 6.55233C18.9889 6.42398 18.7476 6.18947 18.773 6.12033C18.7232 5.97548 18.8756 5.91211 18.9841 5.93766Z" fill="#F5EDE5"/>
<path fill-rule="evenodd" clip-rule="evenodd" d="M21.2128 10.5451C21.25 10.1148 21.1872 9.85248 21.176 9.59959C21.1649 9.34669 20.89 7.41713 20.8343 7.22579C20.767 6.86401 21.1015 7.17727 21.0649 6.96685C20.9492 6.70154 20.6613 6.31529 20.5708 6.08485C20.5165 5.98613 20.5393 5.89829 20.4175 6.05888C20.3046 6.42807 20.2654 6.72985 20.3085 6.95912C20.5985 8.47271 20.896 9.7313 20.8488 11.1722C20.9863 11.1731 21.1449 10.8574 21.2128 10.5451ZM24.2348 6.5476C24.3961 6.62776 24.4905 7.07677 24.4727 7.20507C24.4407 7.4394 24.3551 7.69243 24.2937 7.65948C24.2268 7.63004 24.307 7.31199 24.2749 7.21308C24.2393 7.07415 24.0192 6.82027 24.0424 6.74541C23.9969 6.58862 24.1359 6.51999 24.2348 6.5476ZM12.2503 9.73135C12.4045 9.79023 12.495 10.1202 12.4779 10.2145C12.4472 10.3866 12.3653 10.5726 12.3065 10.5484C12.2426 10.5267 12.3194 10.293 12.2887 10.2204C12.2757 10.0441 12.0616 9.95284 12.066 9.87671C12.0261 9.73674 12.1556 9.71096 12.2503 9.73135Z" fill="#F5EDE5"/>
<path fill-rule="evenodd" clip-rule="evenodd" d="M15.9778 10.2269C16.1769 10.2395 16.2764 10.3957 16.0899 10.4612C15.906 10.5242 15.7292 10.5734 15.7284 10.8392C15.7964 11.2096 15.6351 11.0825 15.5388 11.0322C15.4254 10.9508 15.1072 10.7547 15.0618 10.3314C15.055 10.2304 15.1338 10.1454 15.2606 10.146C15.4516 10.1979 15.7334 10.2017 15.9778 10.2269H15.9778Z" fill="#1B9D00"/>
<path fill-rule="evenodd" clip-rule="evenodd" d="M8.12837 5.83054C8.35595 5.89917 8.3694 6.23367 8.35262 6.33145C8.32229 6.50995 8.24167 6.7027 8.18378 6.67757C8.12078 6.65517 8.18129 6.41287 8.15106 6.33749C8.11731 6.23165 7.92503 6.03824 7.94682 5.98124C7.90403 5.86176 8.03509 5.80945 8.12837 5.83054ZM12.6228 7.40742C12.4482 7.50187 12.3804 7.78335 12.4892 7.94732C12.5907 8.0917 12.7511 8.03817 12.7725 8.03817C12.9436 8.05959 13.045 7.71745 13.045 7.71745C13.045 7.71745 13.0504 7.62126 12.8473 7.80304C12.7618 7.81907 12.7511 7.78696 12.7297 7.73882C12.7119 7.64976 12.7155 7.5607 12.7564 7.47159C12.7867 7.38609 12.7208 7.34863 12.6228 7.40742ZM13.9325 5.70117C13.8447 5.75999 13.6701 5.94093 13.6647 6.14943C13.6594 6.26704 13.6375 6.26667 13.7145 6.34153C13.7702 6.42178 13.8263 6.41456 13.9386 6.35573C14.0031 6.3082 14.0249 6.27665 14.0466 6.19696C14.0733 6.06337 13.9053 6.26034 13.884 6.11165C13.8466 5.97356 13.9545 5.91703 14.056 5.78343C14.0594 5.69188 14.0574 5.62706 13.9325 5.70117ZM14.9876 5.88867C14.9498 5.9722 14.9045 6.40865 14.912 6.40865C14.8818 6.53868 15.0481 6.59432 15.1237 6.42717C15.2371 6.12074 15.2371 5.99076 15.2447 5.86073C15.2094 5.66273 15.0759 5.66892 14.9876 5.88867ZM21.6401 9.27398C21.6628 9.25129 22.5775 8.60118 22.5775 8.60118C22.6708 8.56842 22.6506 8.93634 22.6078 8.93381C22.6254 9.00684 21.7057 9.63177 21.6401 9.6066C21.5948 9.63937 21.5494 9.35465 21.6401 9.27398H21.6401ZM22.474 9.26835C22.6353 9.34851 22.6995 9.82021 22.6817 9.94851C22.6874 10.198 22.5263 10.398 22.4648 10.3651C22.398 10.3357 22.4707 10.0554 22.4386 9.95652C22.4029 9.81759 22.266 9.55612 22.2891 9.48126C22.2437 9.32446 22.3751 9.24074 22.474 9.26835ZM17.0333 11.2999C17.0969 11.2069 17.2934 11.0731 17.2979 11.0731C17.3885 11.0277 17.4771 11.1087 17.4718 11.1033C17.4868 11.1941 17.4144 11.2785 17.4371 11.3995C17.4569 11.4482 17.4714 11.5024 17.5607 11.4817C17.706 11.3675 17.8406 11.3601 17.9858 11.3528C18.0971 11.3595 18.1015 11.548 18.0311 11.5494C17.763 11.6076 17.6428 11.6795 17.4513 11.7525C17.3605 11.8055 17.2827 11.7383 17.2827 11.7308C17.2827 11.7232 17.2297 11.6793 17.2667 11.5591C17.2733 11.4628 17.2345 11.4099 17.1542 11.4209C17.0937 11.4536 17.0405 11.4752 17.0102 11.4057C16.9983 11.3544 16.9945 11.3294 17.0333 11.2999ZM23.4364 11.554C23.4756 11.6039 23.5009 11.65 23.4333 11.732C23.3691 11.7907 23.3239 11.8231 23.2598 11.8819C23.2295 11.9336 23.2101 12.0119 23.3027 12.0369C23.4738 12.085 23.8694 11.8284 23.8694 11.8231C23.9335 11.775 23.9122 11.6841 23.9068 11.6841C23.8694 11.6414 23.7851 11.6668 23.7284 11.6598C23.7014 11.6598 23.6129 11.6464 23.655 11.568C23.6902 11.5193 23.7028 11.4894 23.7266 11.4293C23.7534 11.3706 23.7304 11.3314 23.6342 11.2993C23.5362 11.2814 23.497 11.2904 23.3883 11.2993C23.3295 11.3117 23.3095 11.338 23.2988 11.4093C23.303 11.5174 23.3687 11.5112 23.4364 11.554Z" fill="#F5EDE5"/>
<path fill-rule="evenodd" clip-rule="evenodd" d="M17.068 8.89444C17.0429 8.9378 16.9581 8.93569 16.8786 8.88975C16.7991 8.84382 16.755 8.7713 16.78 8.72789C16.8051 8.68449 16.8899 8.68664 16.9694 8.73268C17.0489 8.77871 17.0931 8.85108 17.068 8.89444ZM12.8927 6.38222C12.8452 6.39385 12.7831 6.35147 12.754 6.28758C12.7249 6.22369 12.7399 6.16247 12.7874 6.15085C12.8349 6.13922 12.897 6.18155 12.9261 6.24544C12.9552 6.30933 12.9403 6.3706 12.8927 6.38222Z" fill="#259F00"/>
<path fill-rule="evenodd" clip-rule="evenodd" d="M21.1518 17.5767C21.5902 17.598 22.002 17.5816 22.4403 17.6031C22.5197 17.6706 22.463 17.8363 22.4101 17.8244C22.2676 17.8208 22.1855 17.8173 22.0429 17.8137C22.0381 17.6741 21.6817 17.6969 21.692 17.8181C21.4996 17.8413 21.326 17.8114 21.1336 17.8043C21.0767 17.7335 21.084 17.6059 21.1519 17.5767H21.1518Z" fill="#209000"/>
</g>
</g>
<defs>
<clipPath id="clip0_136_6188">
<rect x="0.5" width="32" height="24" rx="2" fill="white"/>
</clipPath>
</defs>
</svg>
